# xmcd
#
# Track frame offsets:
#	150
#	19185
#	33600
#	52053
#	63993
#	74563
#	88923
#	99755
#	112228
#	127278
#	138925
#	153440
#	172260
#	184493
#	199485
#	218808
#	227955
#	239053
#	250730
#	269510
#
# Disc length: 3792 seconds
#
# Revision: 1
# Processed by: cddbd v1.4PL0 Copyright (c) Steve Scherf et al.
# Submitted via: audiograbber 1.81.02
#
DISCID=470ece14
DTITLE=Various Artist - Golden Country Oldies
DYEAR=1987
DGENRE=Country
TTITLE0=Alabama - Mountain Music
TTITLE1=Alabama - Old Flame
TTITLE2=Deborah Allen - Baby I Lied
TTITLE3=Eddy Arnold - Make The World Go Away
TTITLE4=Jim Ed Brown - Pop A Top
TTITLE5=Earl Thomas Conley - Holding Her And Loving You
TTITLE6=Floyd Cramer - Last Date
TTITLE7=Dave And Sugar - Queen Of The Silver Dollar
TTITLE8=John Denver - Thank God I'm A Country Boy
TTITLE9=Waylon Jennings And Willie Nelson - Mamas Don't Let Your Babies Grow Up
TTITLE9=To Be Cowboys
TTITLE10=The Judds - Mama He's Crazy
TTITLE11=Ronnie Milsap - Stranger In My House
TTITLE12=Dolly Parton - 9 to 5
TTITLE13=Elvis Presley - Kentucky Rain
TTITLE14=Elvis Presley - Suspicious Minds
TTITLE15=Charley Pride - Kiss An Angel Good Mornin'
TTITLE16=Eddy Raven - I Got Mexico
TTITLE17=Jim Reeves - Welcome To My World
TTITLE18=Kenny Rogers And Dolly Parton - Islands On The Stream
TTITLE19=Sylvia - Nobody
EXTD=
EXTT0=
EXTT1=
EXTT2=
EXTT3=
EXTT4=
EXTT5=
EXTT6=
EXTT7=
EXTT8=
EXTT9=
EXTT10=
EXTT11=
EXTT12=
EXTT13=
EXTT14=
EXTT15=
EXTT16=
EXTT17=
EXTT18=
EXTT19=
PLAYORDER=
